<?xml version="1.0" encoding="UTF-8" standalone="no"?>
<!DOCTYPE svg PUBLIC "-//W3C//DTD SVG 1.1//EN"
 "http://www.w3.org/Graphics/SVG/1.1/DTD/svg11.dtd">
<!-- Generated by graphviz version 14.1.2 (20260124.0452)
 -->
<!-- Title: G Pages: 1 -->
<svg width="1322pt" height="829pt"
 viewBox="0.00 0.00 1322.00 829.00" xmlns="http://www.w3.org/2000/svg" xmlns:xlink="http://www.w3.org/1999/xlink">
<g id="graph0" class="graph" transform="scale(1 1) rotate(0) translate(4 824.76)">
<title>G</title><style>.edge>path:hover{stroke-width:8}</style>
<polygon fill="white" stroke="none" points="-4,4 -4,-824.76 1318.07,-824.76 1318.07,4 -4,4"/>
<!-- applicant_insert -->
<g id="node1" class="node">
<title>applicant_insert</title><style>.edge>path:hover{stroke-width:8}</style>
<ellipse fill="#c24747" stroke="black" cx="611.33" cy="-361.51" rx="50.66" ry="18"/>
<text xml:space="preserve" text-anchor="middle" x="611.33" y="-358.01" font-family="Helvetica,sans-Serif" font-size="10.00" fill="#ffffff">applicant_insert</text>
</g>
<!-- blueprints_dashboard -->
<g id="node3" class="node">
<title>blueprints_dashboard</title><style>.edge>path:hover{stroke-width:8}</style>
<ellipse fill="#725831" stroke="black" cx="851.33" cy="-131.63" rx="43.13" ry="22.63"/>
<text xml:space="preserve" text-anchor="middle" x="851.33" y="-134.13" font-family="Helvetica,sans-Serif" font-size="10.00" fill="#ffffff">blueprints.</text>
<text xml:space="preserve" text-anchor="middle" x="851.33" y="-122.13" font-family="Helvetica,sans-Serif" font-size="10.00" fill="#ffffff">dashboard</text>
</g>
<!-- applicant_insert&#45;&gt;blueprints_dashboard -->
<g id="edge1" class="edge">
<title>applicant_insert&#45;&gt;blueprints_dashboard</title><style>.edge>path:hover{stroke-width:8}</style>
<path fill="none" stroke="black" d="M616.66,-343.27C622.2,-321.63 627.6,-284.62 608.33,-262.25 521.63,-161.69 246.93,-323.65 314.33,-209.25"/>
</g>
<!-- load_data -->
<g id="node26" class="node">
<title>load_data</title><style>.edge>path:hover{stroke-width:8}</style>
<ellipse fill="#466ca4" stroke="black" cx="690.33" cy="-284.88" rx="34.88" ry="18"/>
<text xml:space="preserve" text-anchor="middle" x="690.33" y="-281.38" font-family="Helvetica,sans-Serif" font-size="10.00" fill="#ffffff">load_data</text>
</g>
<!-- applicant_insert&#45;&gt;load_data -->
<g id="edge2" class="edge">
<title>applicant_insert&#45;&gt;load_data</title><style>.edge>path:hover{stroke-width:8}</style>
<path fill="none" stroke="black" d="M628.47,-344.32C639.35,-334.04 653.61,-320.57 665.69,-309.15"/>
<polygon fill="#c24747" stroke="black" points="668.06,-311.73 672.93,-302.32 663.25,-306.64 668.06,-311.73"/>
</g>
<!-- blueprints -->
<g id="node2" class="node">
<title>blueprints</title><style>.edge>path:hover{stroke-width:8}</style>
<ellipse fill="#b68e53" stroke="black" cx="755.33" cy="-131.63" rx="34.88" ry="18"/>
<text xml:space="preserve" text-anchor="middle" x="755.33" y="-128.13" font-family="Helvetica,sans-Serif" font-size="10.00" fill="#000000">blueprints</text>
</g>
<!-- flask_app_py -->
<g id="node24" class="node">
<title>flask_app_py</title><style>.edge>path:hover{stroke-width:8}</style>
<ellipse fill="#447e5b" stroke="black" cx="998.33" cy="-18" rx="43" ry="18"/>
<text xml:space="preserve" text-anchor="middle" x="998.33" y="-14.5" font-family="Helvetica,sans-Serif" font-size="10.00" fill="#ffffff">flask_app.py</text>
</g>
<!-- blueprints&#45;&gt;flask_app_py -->
<g id="edge3" class="edge">
<title>blueprints&#45;&gt;flask_app_py</title><style>.edge>path:hover{stroke-width:8}</style>
<path fill="none" stroke="black" d="M778.57,-117.71C785.12,-114.48 792.37,-111.29 799.33,-109 842.01,-94.95 1002.66,-117.73 998.33,-73"/>
<path fill="none" stroke="black" d="M998.33,-72C997.56,-64.09 997.31,-55.49 997.32,-47.56"/>
<polygon fill="#b68e53" stroke="black" points="1000.81,-47.79 997.46,-37.74 993.81,-47.69 1000.81,-47.79"/>
</g>
<!-- blueprints_dashboard&#45;&gt;flask_app_py -->
<g id="edge4" class="edge">
<title>blueprints_dashboard&#45;&gt;flask_app_py</title><style>.edge>path:hover{stroke-width:8}</style>
<path fill="none" stroke="black" d="M885.83,-117.56C929.33,-101.02 998.47,-74.5 998.33,-73"/>
</g>
<!-- dotenv -->
<g id="node4" class="node">
<title>dotenv</title><style>.edge>path:hover{stroke-width:8}</style>
<ellipse fill="#98ac49" stroke="black" cx="1092.33" cy="-131.63" rx="27.21" ry="18"/>
<text xml:space="preserve" text-anchor="middle" x="1092.33" y="-128.13" font-family="Helvetica,sans-Serif" font-size="10.00" fill="#000000">dotenv</text>
</g>
<!-- dotenv&#45;&gt;flask_app_py -->
<g id="edge5" class="edge">
<title>dotenv&#45;&gt;flask_app_py</title><style>.edge>path:hover{stroke-width:8}</style>
<path fill="none" stroke="black" d="M1072.45,-118.97C1044.92,-102.76 998.53,-75.14 998.33,-73"/>
</g>
<!-- dotenv_ipython -->
<g id="node5" class="node">
<title>dotenv_ipython</title><style>.edge>path:hover{stroke-width:8}</style>
<ellipse fill="#9eb34c" stroke="black" cx="1071.33" cy="-208.25" rx="47.51" ry="18"/>
<text xml:space="preserve" text-anchor="middle" x="1071.33" y="-204.75" font-family="Helvetica,sans-Serif" font-size="10.00" fill="#000000">dotenv.ipython</text>
</g>
<!-- dotenv_ipython&#45;&gt;dotenv -->
<g id="edge6" class="edge">
<title>dotenv_ipython&#45;&gt;dotenv</title><style>.edge>path:hover{stroke-width:8}</style>
<path fill="none" stroke="black" d="M1076.2,-189.95C1078.63,-181.28 1081.65,-170.57 1084.41,-160.76"/>
<polygon fill="#9eb34c" stroke="black" points="1087.73,-161.87 1087.07,-151.3 1080.99,-159.98 1087.73,-161.87"/>
</g>
<!-- dotenv_load_dotenv -->
<g id="node6" class="node">
<title>dotenv_load_dotenv</title><style>.edge>path:hover{stroke-width:8}</style>
<ellipse fill="#a2b653" stroke="black" cx="998.33" cy="-131.63" rx="48.44" ry="22.63"/>
<text xml:space="preserve" text-anchor="middle" x="998.33" y="-134.13" font-family="Helvetica,sans-Serif" font-size="10.00" fill="#000000">dotenv.</text>
<text xml:space="preserve" text-anchor="middle" x="998.33" y="-122.13" font-family="Helvetica,sans-Serif" font-size="10.00" fill="#000000">load_dotenv</text>
</g>
<!-- dotenv_load_dotenv&#45;&gt;flask_app_py -->
<g id="edge7" class="edge">
<title>dotenv_load_dotenv&#45;&gt;flask_app_py</title><style>.edge>path:hover{stroke-width:8}</style>
<path fill="none" stroke="black" d="M999.32,-108.69C999.55,-97.91 999.46,-84.75 998.33,-73"/>
</g>
<!-- dotenv_main -->
<g id="node7" class="node">
<title>dotenv_main</title><style>.edge>path:hover{stroke-width:8}</style>
<ellipse fill="#a9c247" stroke="black" cx="1109.33" cy="-284.88" rx="41.19" ry="18"/>
<text xml:space="preserve" text-anchor="middle" x="1109.33" y="-281.38" font-family="Helvetica,sans-Serif" font-size="10.00" fill="#000000">dotenv.main</text>
</g>
<!-- dotenv_main&#45;&gt;dotenv -->
<g id="edge8" class="edge">
<title>dotenv_main&#45;&gt;dotenv</title><style>.edge>path:hover{stroke-width:8}</style>
<path fill="none" stroke="black" d="M1117.68,-266.77C1125.79,-247.85 1135.87,-216.56 1128.33,-190.25 1124.91,-178.35 1118.24,-166.51 1111.56,-156.7"/>
<polygon fill="#a9c247" stroke="black" points="1114.58,-154.9 1105.89,-148.85 1108.91,-159 1114.58,-154.9"/>
</g>
<!-- dotenv_main&#45;&gt;dotenv_ipython -->
<g id="edge9" class="edge">
<title>dotenv_main&#45;&gt;dotenv_ipython</title><style>.edge>path:hover{stroke-width:8}</style>
<path fill="none" stroke="black" d="M1100.7,-266.95C1096.12,-257.95 1090.37,-246.66 1085.18,-236.47"/>
<polygon fill="#a9c247" stroke="black" points="1088.39,-235.05 1080.73,-227.73 1082.15,-238.23 1088.39,-235.05"/>
</g>
<!-- flask -->
<g id="node8" class="node">
<title>flask</title><style>.edge>path:hover{stroke-width:8}</style>
<polygon fill="blue" stroke="black" points="970.33,-302.88 916.33,-302.88 916.33,-266.88 970.33,-266.88 970.33,-302.88"/>
<text xml:space="preserve" text-anchor="middle" x="943.33" y="-281.38" font-family="Helvetica,sans-Serif" font-size="10.00" fill="white">flask</text>
</g>
<!-- flask&#45;&gt;blueprints_dashboard -->
<g id="edge10" class="edge">
<title>flask&#45;&gt;blueprints_dashboard</title><style>.edge>path:hover{stroke-width:8}</style>
<path fill="none" stroke="black" d="M922.33,-207.25C915.14,-187.6 899.68,-170.32 885.02,-157.35"/>
<polygon fill="blue" stroke="black" points="887.62,-154.96 877.71,-151.2 883.11,-160.32 887.62,-154.96"/>
<path fill="none" stroke="black" d="M939.22,-266.45C935.44,-251.17 929.35,-228.47 922.33,-209.25"/>
</g>
<!-- flask&#45;&gt;flask_app_py -->
<g id="edge11" class="edge">
<title>flask&#45;&gt;flask_app_py</title><style>.edge>path:hover{stroke-width:8}</style>
<path fill="none" stroke="black" d="M922.33,-207.25C907.05,-165.48 916.24,-145.73 941.33,-109 958.23,-84.26 1001.22,-102.82 998.33,-73"/>
</g>
<!-- flask_app -->
<g id="node9" class="node">
<title>flask_app</title><style>.edge>path:hover{stroke-width:8}</style>
<polygon fill="blue" stroke="black" points="1018.2,-748.76 962.45,-748.76 962.45,-712.76 1018.2,-712.76 1018.2,-748.76"/>
<text xml:space="preserve" text-anchor="middle" x="990.33" y="-727.26" font-family="Helvetica,sans-Serif" font-size="10.00" fill="white">flask.app</text>
</g>
<!-- flask_app&#45;&gt;flask -->
<g id="edge12" class="edge">
<title>flask_app&#45;&gt;flask</title><style>.edge>path:hover{stroke-width:8}</style>
<path fill="none" stroke="black" d="M1018.41,-720.66C1040.28,-712.31 1070.06,-697.99 1089.33,-676.76 1101.4,-663.46 1178.08,-473.92 1182.33,-439.14"/>
<path fill="none" stroke="black" d="M1182.33,-437.14C1189.52,-342.99 1051.06,-304.94 981.7,-291.83"/>
<polygon fill="blue" stroke="black" points="982.74,-288.46 972.28,-290.13 981.5,-295.35 982.74,-288.46"/>
</g>
<!-- flask_ctx -->
<g id="node13" class="node">
<title>flask_ctx</title><style>.edge>path:hover{stroke-width:8}</style>
<polygon fill="blue" stroke="black" points="861.33,-676.76 807.33,-676.76 807.33,-640.76 861.33,-640.76 861.33,-676.76"/>
<text xml:space="preserve" text-anchor="middle" x="834.33" y="-655.26" font-family="Helvetica,sans-Serif" font-size="10.00" fill="white">flask.ctx</text>
</g>
<!-- flask_app&#45;&gt;flask_ctx -->
<g id="edge13" class="edge">
<title>flask_app&#45;&gt;flask_ctx</title><style>.edge>path:hover{stroke-width:8}</style>
<path fill="none" stroke="black" d="M951.84,-712.49C927.43,-701.54 896.02,-687.45 871.81,-676.58"/>
<polygon fill="blue" stroke="black" points="950.14,-715.57 960.69,-716.47 953,-709.18 950.14,-715.57"/>
<polygon fill="blue" stroke="black" points="873.52,-673.52 862.96,-672.61 870.65,-679.9 873.52,-673.52"/>
</g>
<!-- flask_globals -->
<g id="node15" class="node">
<title>flask_globals</title><style>.edge>path:hover{stroke-width:8}</style>
<polygon fill="blue" stroke="black" points="987.7,-604.76 916.95,-604.76 916.95,-568.76 987.7,-568.76 987.7,-604.76"/>
<text xml:space="preserve" text-anchor="middle" x="952.33" y="-583.26" font-family="Helvetica,sans-Serif" font-size="10.00" fill="white">flask.globals</text>
</g>
<!-- flask_app&#45;&gt;flask_globals -->
<g id="edge14" class="edge">
<title>flask_app&#45;&gt;flask_globals</title><style>.edge>path:hover{stroke-width:8}</style>
<path fill="none" stroke="black" d="M982.73,-701.37C976.06,-676.47 966.43,-640.47 959.8,-615.71"/>
<polygon fill="blue" stroke="black" points="979.31,-702.14 985.27,-710.89 986.07,-700.33 979.31,-702.14"/>
<polygon fill="blue" stroke="black" points="963.26,-615.09 957.3,-606.34 956.5,-616.9 963.26,-615.09"/>
</g>
<!-- flask_templating -->
<g id="node22" class="node">
<title>flask_templating</title><style>.edge>path:hover{stroke-width:8}</style>
<polygon fill="blue" stroke="black" points="1098.83,-379.51 1037.83,-379.51 1037.83,-343.51 1098.83,-343.51 1098.83,-379.51"/>
<text xml:space="preserve" text-anchor="middle" x="1068.33" y="-364.01" font-family="Helvetica,sans-Serif" font-size="10.00" fill="white">flask.</text>
<text xml:space="preserve" text-anchor="middle" x="1068.33" y="-352.01" font-family="Helvetica,sans-Serif" font-size="10.00" fill="white">templating</text>
</g>
<!-- flask_app&#45;&gt;flask_templating -->
<g id="edge15" class="edge">
<title>flask_app&#45;&gt;flask_templating</title><style>.edge>path:hover{stroke-width:8}</style>
<path fill="none" stroke="black" d="M1027.64,-705.88C1061.55,-680.92 1106.33,-638.39 1106.33,-587.76 1106.33,-587.76 1106.33,-587.76 1106.33,-513.76 1106.33,-469.59 1090.89,-420.28 1079.69,-390.33"/>
<polygon fill="blue" stroke="black" points="1025.76,-702.91 1019.64,-711.56 1029.82,-708.62 1025.76,-702.91"/>
<polygon fill="blue" stroke="black" points="1083.06,-389.33 1076.2,-381.26 1076.53,-391.85 1083.06,-389.33"/>
</g>
<!-- flask_Blueprint -->
<g id="node10" class="node">
<title>flask_Blueprint</title><style>.edge>path:hover{stroke-width:8}</style>
<ellipse fill="#67b653" stroke="black" cx="216.33" cy="-284.88" rx="38.36" ry="22.63"/>
<text xml:space="preserve" text-anchor="middle" x="216.33" y="-287.38" font-family="Helvetica,sans-Serif" font-size="10.00" fill="#000000">flask.</text>
<text xml:space="preserve" text-anchor="middle" x="216.33" y="-275.38" font-family="Helvetica,sans-Serif" font-size="10.00" fill="#000000">Blueprint</text>
</g>
<!-- flask_Blueprint&#45;&gt;blueprints_dashboard -->
<g id="edge16" class="edge">
<title>flask_Blueprint&#45;&gt;blueprints_dashboard</title><style>.edge>path:hover{stroke-width:8}</style>
<path fill="none" stroke="black" d="M245.36,-269.8C268.02,-257.21 298.26,-236.53 314.33,-209.25"/>
</g>
<!-- flask_blueprints -->
<g id="node11" class="node">
<title>flask_blueprints</title><style>.edge>path:hover{stroke-width:8}</style>
<polygon fill="blue" stroke="black" points="972.33,-379.51 914.33,-379.51 914.33,-343.51 972.33,-343.51 972.33,-379.51"/>
<text xml:space="preserve" text-anchor="middle" x="943.33" y="-364.01" font-family="Helvetica,sans-Serif" font-size="10.00" fill="white">flask.</text>
<text xml:space="preserve" text-anchor="middle" x="943.33" y="-352.01" font-family="Helvetica,sans-Serif" font-size="10.00" fill="white">blueprints</text>
</g>
<!-- flask_blueprints&#45;&gt;flask -->
<g id="edge17" class="edge">
<title>flask_blueprints&#45;&gt;flask</title><style>.edge>path:hover{stroke-width:8}</style>
<path fill="none" stroke="black" d="M943.33,-343.2C943.33,-334.78 943.33,-324.44 943.33,-314.87"/>
<polygon fill="blue" stroke="black" points="946.83,-314.87 943.33,-304.87 939.83,-314.87 946.83,-314.87"/>
</g>
<!-- flask_config -->
<g id="node12" class="node">
<title>flask_config</title><style>.edge>path:hover{stroke-width:8}</style>
<ellipse fill="#67b653" stroke="black" cx="758.33" cy="-361.51" rx="39.84" ry="18"/>
<text xml:space="preserve" text-anchor="middle" x="758.33" y="-358.01" font-family="Helvetica,sans-Serif" font-size="10.00" fill="#000000">flask.config</text>
</g>
<!-- flask_config&#45;&gt;flask -->
<g id="edge18" class="edge">
<title>flask_config&#45;&gt;flask</title><style>.edge>path:hover{stroke-width:8}</style>
<path fill="none" stroke="black" d="M787.23,-348.85C819.1,-335.99 870.48,-315.27 905.52,-301.13"/>
<polygon fill="#67b653" stroke="black" points="906.46,-304.53 914.43,-297.54 903.84,-298.04 906.46,-304.53"/>
</g>
<!-- flask_ctx&#45;&gt;flask -->
<g id="edge19" class="edge">
<title>flask_ctx&#45;&gt;flask</title><style>.edge>path:hover{stroke-width:8}</style>
<path fill="none" stroke="black" d="M826.33,-360.51C848.16,-335.36 880.54,-315.61 905.7,-302.76"/>
<polygon fill="blue" stroke="black" points="907.21,-305.92 914.63,-298.35 904.11,-299.64 907.21,-305.92"/>
<path fill="none" stroke="black" d="M818.67,-640.43C790.57,-608.02 732.54,-534.8 711.33,-460.76 705.78,-441.43 699.87,-432.04 711.33,-415.51 737.28,-378.06 768.34,-403.11 807.33,-379.51 817.02,-373.64 818.9,-371.07 826.33,-362.51"/>
</g>
<!-- flask_ctx&#45;&gt;flask_globals -->
<g id="edge21" class="edge">
<title>flask_ctx&#45;&gt;flask_globals</title><style>.edge>path:hover{stroke-width:8}</style>
<path fill="none" stroke="black" d="M871.16,-635.91C884.61,-627.94 899.85,-618.89 913.46,-610.82"/>
<polygon fill="blue" stroke="black" points="869.81,-632.64 863,-640.76 873.38,-638.67 869.81,-632.64"/>
<polygon fill="blue" stroke="black" points="914.93,-614.02 921.74,-605.91 911.36,-608 914.93,-614.02"/>
</g>
<!-- flask_Flask -->
<g id="node14" class="node">
<title>flask_Flask</title><style>.edge>path:hover{stroke-width:8}</style>
<ellipse fill="#67b653" stroke="black" cx="1176.33" cy="-131.63" rx="38.49" ry="18"/>
<text xml:space="preserve" text-anchor="middle" x="1176.33" y="-128.13" font-family="Helvetica,sans-Serif" font-size="10.00" fill="#000000">flask.Flask</text>
</g>
<!-- flask_Flask&#45;&gt;flask_app_py -->
<g id="edge22" class="edge">
<title>flask_Flask&#45;&gt;flask_app_py</title><style>.edge>path:hover{stroke-width:8}</style>
<path fill="none" stroke="black" d="M1150.22,-117.99C1143.2,-114.83 1135.55,-111.61 1128.33,-109 1071.94,-88.63 1004.11,-132.67 998.33,-73"/>
</g>
<!-- flask_globals&#45;&gt;flask -->
<g id="edge23" class="edge">
<title>flask_globals&#45;&gt;flask</title><style>.edge>path:hover{stroke-width:8}</style>
<path fill="none" stroke="black" d="M826.33,-437.14C820.36,-404.51 804.58,-387.55 826.33,-362.51"/>
<path fill="none" stroke="black" d="M916.58,-578.26C891.23,-571.01 858.6,-557.38 840.33,-532.76 815.25,-498.98 833.9,-480.53 826.33,-439.14"/>
</g>
<!-- flask_globals&#45;&gt;flask_blueprints -->
<g id="edge25" class="edge">
<title>flask_globals&#45;&gt;flask_blueprints</title><style>.edge>path:hover{stroke-width:8}</style>
<path fill="none" stroke="black" d="M957.33,-513.76C962.15,-480.09 935.96,-472.87 940.33,-439.14"/>
</g>
<!-- flask_helpers -->
<g id="node16" class="node">
<title>flask_helpers</title><style>.edge>path:hover{stroke-width:8}</style>
<polygon fill="blue" stroke="black" points="1040.08,-456.14 968.58,-456.14 968.58,-420.14 1040.08,-420.14 1040.08,-456.14"/>
<text xml:space="preserve" text-anchor="middle" x="1004.33" y="-434.64" font-family="Helvetica,sans-Serif" font-size="10.00" fill="white">flask.helpers</text>
</g>
<!-- flask_globals&#45;&gt;flask_helpers -->
<g id="edge27" class="edge">
<title>flask_globals&#45;&gt;flask_helpers</title><style>.edge>path:hover{stroke-width:8}</style>
<path fill="none" stroke="black" d="M957.33,-513.76C959.9,-495.78 970.18,-478.44 980.47,-465.01"/>
<polygon fill="blue" stroke="black" points="982.95,-467.51 986.55,-457.55 977.52,-463.09 982.95,-467.51"/>
</g>
<!-- flask_json -->
<g id="node17" class="node">
<title>flask_json</title><style>.edge>path:hover{stroke-width:8}</style>
<polygon fill="blue" stroke="black" points="912.33,-456.14 854.33,-456.14 854.33,-420.14 912.33,-420.14 912.33,-456.14"/>
<text xml:space="preserve" text-anchor="middle" x="883.33" y="-434.64" font-family="Helvetica,sans-Serif" font-size="10.00" fill="white">flask.json</text>
</g>
<!-- flask_globals&#45;&gt;flask_json -->
<g id="edge28" class="edge">
<title>flask_globals&#45;&gt;flask_json</title><style>.edge>path:hover{stroke-width:8}</style>
<path fill="none" stroke="black" d="M957.33,-513.76C960.68,-490.33 941.62,-471.47 922.01,-458.58"/>
<polygon fill="blue" stroke="black" points="924.08,-455.75 913.72,-453.53 920.44,-461.72 924.08,-455.75"/>
<path fill="none" stroke="black" d="M952.88,-568.43C953.5,-554.22 954.77,-533.61 957.33,-515.76"/>
</g>
<!-- flask_globals&#45;&gt;flask_templating -->
<g id="edge29" class="edge">
<title>flask_globals&#45;&gt;flask_templating</title><style>.edge>path:hover{stroke-width:8}</style>
<path fill="none" stroke="black" d="M957.33,-513.76C964.02,-467.05 1021.92,-499.18 1049.33,-460.76 1063.75,-440.55 1067.99,-412.27 1068.92,-391.24"/>
<polygon fill="blue" stroke="black" points="1072.42,-391.39 1069.11,-381.33 1065.42,-391.26 1072.42,-391.39"/>
</g>
<!-- flask_wrappers -->
<g id="node23" class="node">
<title>flask_wrappers</title><style>.edge>path:hover{stroke-width:8}</style>
<polygon fill="blue" stroke="black" points="929.2,-532.76 849.45,-532.76 849.45,-496.76 929.2,-496.76 929.2,-532.76"/>
<text xml:space="preserve" text-anchor="middle" x="889.33" y="-511.26" font-family="Helvetica,sans-Serif" font-size="10.00" fill="white">flask.wrappers</text>
</g>
<!-- flask_globals&#45;&gt;flask_wrappers -->
<g id="edge30" class="edge">
<title>flask_globals&#45;&gt;flask_wrappers</title><style>.edge>path:hover{stroke-width:8}</style>
<path fill="none" stroke="black" d="M929.25,-560.12C923.76,-554.03 917.9,-547.52 912.41,-541.42"/>
<polygon fill="blue" stroke="black" points="926.45,-562.24 935.74,-567.34 931.65,-557.56 926.45,-562.24"/>
<polygon fill="blue" stroke="black" points="915.02,-539.09 905.73,-533.99 909.82,-543.77 915.02,-539.09"/>
</g>
<!-- flask_helpers&#45;&gt;flask -->
<g id="edge31" class="edge">
<title>flask_helpers&#45;&gt;flask</title><style>.edge>path:hover{stroke-width:8}</style>
<path fill="none" stroke="black" d="M1001.86,-419.65C998.74,-400.4 992.38,-368.82 981.33,-343.51 976.62,-332.75 969.96,-321.79 963.52,-312.35"/>
<polygon fill="blue" stroke="black" points="966.5,-310.5 957.85,-304.38 960.79,-314.56 966.5,-310.5"/>
</g>
<!-- flask_helpers&#45;&gt;flask_app -->
<g id="edge32" class="edge">
<title>flask_helpers&#45;&gt;flask_app</title><style>.edge>path:hover{stroke-width:8}</style>
<path fill="none" stroke="black" d="M1003.5,-456.36C1001.17,-504.6 994.58,-641.48 991.7,-701.25"/>
<polygon fill="blue" stroke="black" points="988.22,-700.79 991.23,-710.94 995.21,-701.12 988.22,-700.79"/>
</g>
<!-- flask_helpers&#45;&gt;flask_blueprints -->
<g id="edge33" class="edge">
<title>flask_helpers&#45;&gt;flask_blueprints</title><style>.edge>path:hover{stroke-width:8}</style>
<path fill="none" stroke="black" d="M990.18,-419.83C982.61,-410.57 973.14,-398.98 964.69,-388.65"/>
<polygon fill="blue" stroke="black" points="967.6,-386.68 958.57,-381.15 962.18,-391.11 967.6,-386.68"/>
</g>
<!-- flask_helpers&#45;&gt;flask_templating -->
<g id="edge34" class="edge">
<title>flask_helpers&#45;&gt;flask_templating</title><style>.edge>path:hover{stroke-width:8}</style>
<path fill="none" stroke="black" d="M1019.17,-419.83C1027.11,-410.57 1037.05,-398.98 1045.91,-388.65"/>
<polygon fill="blue" stroke="black" points="1048.5,-391 1052.36,-381.13 1043.19,-386.44 1048.5,-391"/>
</g>
<!-- flask_json&#45;&gt;flask -->
<g id="edge36" class="edge">
<title>flask_json&#45;&gt;flask</title><style>.edge>path:hover{stroke-width:8}</style>
<path fill="none" stroke="black" d="M855.13,-419.76C833.52,-404.32 809.97,-381.34 826.33,-362.51"/>
</g>
<!-- flask_jsonify -->
<g id="node18" class="node">
<title>flask_jsonify</title><style>.edge>path:hover{stroke-width:8}</style>
<ellipse fill="#67b653" stroke="black" cx="314.33" cy="-284.88" rx="41.19" ry="18"/>
<text xml:space="preserve" text-anchor="middle" x="314.33" y="-281.38" font-family="Helvetica,sans-Serif" font-size="10.00" fill="#000000">flask.jsonify</text>
</g>
<!-- flask_jsonify&#45;&gt;blueprints_dashboard -->
<g id="edge38" class="edge">
<title>flask_jsonify&#45;&gt;blueprints_dashboard</title><style>.edge>path:hover{stroke-width:8}</style>
<path fill="none" stroke="black" d="M309.63,-266.59C306.31,-250.57 304.07,-226.67 314.33,-209.25"/>
</g>
<!-- flask_render_template -->
<g id="node19" class="node">
<title>flask_render_template</title><style>.edge>path:hover{stroke-width:8}</style>
<ellipse fill="#67b653" stroke="black" cx="434.33" cy="-284.88" rx="60.63" ry="22.63"/>
<text xml:space="preserve" text-anchor="middle" x="434.33" y="-287.38" font-family="Helvetica,sans-Serif" font-size="10.00" fill="#000000">flask.</text>
<text xml:space="preserve" text-anchor="middle" x="434.33" y="-275.38" font-family="Helvetica,sans-Serif" font-size="10.00" fill="#000000">render_template</text>
</g>
<!-- flask_render_template&#45;&gt;blueprints_dashboard -->
<g id="edge39" class="edge">
<title>flask_render_template&#45;&gt;blueprints_dashboard</title><style>.edge>path:hover{stroke-width:8}</style>
<path fill="none" stroke="black" d="M393.23,-267.86C354.66,-251.56 304.27,-226.32 314.33,-209.25"/>
</g>
<!-- flask_request -->
<g id="node20" class="node">
<title>flask_request</title><style>.edge>path:hover{stroke-width:8}</style>
<ellipse fill="#67b653" stroke="black" cx="556.33" cy="-284.88" rx="43.45" ry="18"/>
<text xml:space="preserve" text-anchor="middle" x="556.33" y="-281.38" font-family="Helvetica,sans-Serif" font-size="10.00" fill="#000000">flask.request</text>
</g>
<!-- flask_request&#45;&gt;blueprints_dashboard -->
<g id="edge40" class="edge">
<title>flask_request&#45;&gt;blueprints_dashboard</title><style>.edge>path:hover{stroke-width:8}</style>
<path fill="none" stroke="black" d="M527.41,-271.12C519.96,-268.04 511.9,-264.88 504.33,-262.25 421.48,-233.59 269.83,-284.79 314.33,-209.25"/>
</g>
<!-- flask_signals -->
<g id="node21" class="node">
<title>flask_signals</title><style>.edge>path:hover{stroke-width:8}</style>
<ellipse fill="#4ae722" stroke="black" cx="990.33" cy="-802.76" rx="42.54" ry="18"/>
<text xml:space="preserve" text-anchor="middle" x="990.33" y="-799.26" font-family="Helvetica,sans-Serif" font-size="10.00" fill="#000000">flask.signals</text>
</g>
<!-- flask_signals&#45;&gt;flask -->
<g id="edge41" class="edge">
<title>flask_signals&#45;&gt;flask</title><style>.edge>path:hover{stroke-width:8}</style>
<path fill="none" stroke="black" d="M1182.33,-513.76C1178.52,-480.82 1186.93,-471.98 1182.33,-439.14"/>
</g>
<!-- flask_signals&#45;&gt;flask_app -->
<g id="edge42" class="edge">
<title>flask_signals&#45;&gt;flask_app</title><style>.edge>path:hover{stroke-width:8}</style>
<path fill="none" stroke="black" d="M990.33,-784.46C990.33,-777.17 990.33,-768.49 990.33,-760.3"/>
<polygon fill="#4ae722" stroke="black" points="993.83,-760.38 990.33,-750.38 986.83,-760.38 993.83,-760.38"/>
</g>
<!-- flask_signals&#45;&gt;flask_ctx -->
<g id="edge43" class="edge">
<title>flask_signals&#45;&gt;flask_ctx</title><style>.edge>path:hover{stroke-width:8}</style>
<path fill="none" stroke="black" d="M973.03,-786.03C946.06,-761.47 893.74,-713.84 861.63,-684.62"/>
<polygon fill="#4ae722" stroke="black" points="864.02,-682.06 854.27,-677.92 859.31,-687.24 864.02,-682.06"/>
</g>
<!-- flask_signals&#45;&gt;flask_helpers -->
<g id="edge44" class="edge">
<title>flask_signals&#45;&gt;flask_helpers</title><style>.edge>path:hover{stroke-width:8}</style>
<path fill="none" stroke="black" d="M1182.33,-585.76C1161.09,-524.72 1095.86,-482.36 1050.56,-459.39"/>
<polygon fill="#4ae722" stroke="black" points="1052.24,-456.32 1041.73,-455.05 1049.15,-462.6 1052.24,-456.32"/>
<path fill="none" stroke="black" d="M1018.03,-788.78C1075.13,-759.9 1199.23,-685.14 1182.33,-587.76"/>
</g>
<!-- flask_signals&#45;&gt;flask_templating -->
<g id="edge45" class="edge">
<title>flask_signals&#45;&gt;flask_templating</title><style>.edge>path:hover{stroke-width:8}</style>
<path fill="none" stroke="black" d="M1182.33,-585.76C1179.93,-554.75 1186.1,-546.65 1182.33,-515.76"/>
<path fill="none" stroke="black" d="M1182.33,-513.76C1175.84,-460.66 1131.55,-413.96 1100.13,-386.97"/>
<polygon fill="#4ae722" stroke="black" points="1102.73,-384.59 1092.81,-380.87 1098.25,-389.96 1102.73,-384.59"/>
</g>
<!-- flask_templating&#45;&gt;flask -->
<g id="edge46" class="edge">
<title>flask_templating&#45;&gt;flask</title><style>.edge>path:hover{stroke-width:8}</style>
<path fill="none" stroke="black" d="M1039.02,-343.01C1021.52,-332.57 999.14,-319.21 980.42,-308.03"/>
<polygon fill="blue" stroke="black" points="982.42,-305.14 972.04,-303.02 978.83,-311.15 982.42,-305.14"/>
</g>
<!-- flask_wrappers&#45;&gt;flask -->
<g id="edge48" class="edge">
<title>flask_wrappers&#45;&gt;flask</title><style>.edge>path:hover{stroke-width:8}</style>
<path fill="none" stroke="black" d="M865.21,-496.35C849.3,-482.9 830.63,-462.65 826.33,-439.14"/>
</g>
<!-- flask_wrappers&#45;&gt;flask_app -->
<g id="edge49" class="edge">
<title>flask_wrappers&#45;&gt;flask_app</title><style>.edge>path:hover{stroke-width:8}</style>
<path fill="none" stroke="black" d="M889.33,-587.76C879.64,-640.27 931.32,-687.88 964.35,-712.38"/>
</g>
<!-- flask_wrappers&#45;&gt;flask_blueprints -->
<g id="edge50" class="edge">
<title>flask_wrappers&#45;&gt;flask_blueprints</title><style>.edge>path:hover{stroke-width:8}</style>
<path fill="none" stroke="black" d="M908.4,-496.28C921.65,-482.36 937.42,-461.55 940.33,-439.14"/>
<path fill="none" stroke="black" d="M940.33,-437.14C942.28,-422.02 943.07,-405.05 943.36,-391.11"/>
<polygon fill="blue" stroke="black" points="946.86,-391.33 943.48,-381.29 939.86,-391.24 946.86,-391.33"/>
</g>
<!-- flask_wrappers&#45;&gt;flask_ctx -->
<g id="edge51" class="edge">
<title>flask_wrappers&#45;&gt;flask_ctx</title><style>.edge>path:hover{stroke-width:8}</style>
<path fill="none" stroke="black" d="M891.07,-533.18C891.87,-544.55 892.36,-559.96 890.87,-574.7"/>
<polygon fill="blue" stroke="black" points="887.46,-573.88 889.54,-584.27 894.39,-574.85 887.46,-573.88"/>
<path fill="none" stroke="black" d="M889.33,-587.76C885.43,-608.89 869.55,-627.71 855.85,-640.5"/>
</g>
<!-- flask_wrappers&#45;&gt;flask_helpers -->
<g id="edge53" class="edge">
<title>flask_wrappers&#45;&gt;flask_helpers</title><style>.edge>path:hover{stroke-width:8}</style>
<path fill="none" stroke="black" d="M925.8,-490.1C939.3,-481.33 954.6,-471.4 968.09,-462.65"/>
<polygon fill="blue" stroke="black" points="924.04,-487.06 917.56,-495.44 927.85,-492.94 924.04,-487.06"/>
<polygon fill="blue" stroke="black" points="969.78,-465.73 976.26,-457.35 965.97,-459.86 969.78,-465.73"/>
</g>
<!-- flask_wrappers&#45;&gt;flask_json -->
<g id="edge54" class="edge">
<title>flask_wrappers&#45;&gt;flask_json</title><style>.edge>path:hover{stroke-width:8}</style>
<path fill="none" stroke="black" d="M887.04,-485.29C886.58,-479.55 886.09,-473.53 885.63,-467.79"/>
<polygon fill="blue" stroke="black" points="883.52,-485.26 887.81,-494.95 890.5,-484.7 883.52,-485.26"/>
<polygon fill="blue" stroke="black" points="889.14,-467.81 884.85,-458.12 882.16,-468.37 889.14,-467.81"/>
</g>
<!-- json_jsonify -->
<g id="node25" class="node">
<title>json_jsonify</title><style>.edge>path:hover{stroke-width:8}</style>
<ellipse fill="#53b6b6" stroke="black" cx="759.33" cy="-438.14" rx="39.39" ry="18"/>
<text xml:space="preserve" text-anchor="middle" x="759.33" y="-434.64" font-family="Helvetica,sans-Serif" font-size="10.00" fill="#000000">json.jsonify</text>
</g>
<!-- json_jsonify&#45;&gt;flask -->
<g id="edge55" class="edge">
<title>json_jsonify&#45;&gt;flask</title><style>.edge>path:hover{stroke-width:8}</style>
<path fill="none" stroke="black" d="M774.12,-420.97C787.8,-405.95 808.63,-382.89 826.33,-362.51"/>
</g>
<!-- load_data&#45;&gt;blueprints_dashboard -->
<g id="edge56" class="edge">
<title>load_data&#45;&gt;blueprints_dashboard</title><style>.edge>path:hover{stroke-width:8}</style>
<path fill="none" stroke="black" d="M665.86,-271.62C658.16,-268.16 649.53,-264.69 641.33,-262.25 570.75,-241.33 276.96,-272.68 314.33,-209.25"/>
</g>
<!-- pathlib_Path -->
<g id="node27" class="node">
<title>pathlib_Path</title><style>.edge>path:hover{stroke-width:8}</style>
<ellipse fill="#6753b6" stroke="black" cx="1273.33" cy="-131.63" rx="40.74" ry="18"/>
<text xml:space="preserve" text-anchor="middle" x="1273.33" y="-128.13" font-family="Helvetica,sans-Serif" font-size="10.00" fill="#ffffff">pathlib.Path</text>
</g>
<!-- pathlib_Path&#45;&gt;flask_app_py -->
<g id="edge57" class="edge">
<title>pathlib_Path&#45;&gt;flask_app_py</title><style>.edge>path:hover{stroke-width:8}</style>
<path fill="none" stroke="black" d="M1246.53,-117.58C1239.15,-114.39 1231.04,-111.25 1223.33,-109 1174.71,-94.84 1003.21,-123.4 998.33,-73"/>
</g>
<!-- psycopg -->
<g id="node28" class="node">
<title>psycopg</title><style>.edge>path:hover{stroke-width:8}</style>
<ellipse fill="#b526d9" stroke="black" cx="150.33" cy="-361.51" rx="31.72" ry="18"/>
<text xml:space="preserve" text-anchor="middle" x="150.33" y="-358.01" font-family="Helvetica,sans-Serif" font-size="10.00" fill="#ffffff">psycopg</text>
</g>
<!-- psycopg&#45;&gt;blueprints_dashboard -->
<g id="edge58" class="edge">
<title>psycopg&#45;&gt;blueprints_dashboard</title><style>.edge>path:hover{stroke-width:8}</style>
<path fill="none" stroke="black" d="M148.86,-343.06C148.03,-321.54 149.94,-285 169.33,-262.25 213.83,-210.03 279.04,-268.1 314.33,-209.25"/>
</g>
<!-- psycopg&#45;&gt;load_data -->
<g id="edge59" class="edge">
<title>psycopg&#45;&gt;load_data</title><style>.edge>path:hover{stroke-width:8}</style>
<path fill="none" stroke="black" d="M181.93,-358.41C256.61,-353.12 449.64,-337.46 608.33,-307.51 621.87,-304.95 636.46,-301.38 649.54,-297.87"/>
<polygon fill="#b526d9" stroke="black" points="650.4,-301.26 659.11,-295.23 648.54,-294.51 650.4,-301.26"/>
</g>
<!-- query_data -->
<g id="node30" class="node">
<title>query_data</title><style>.edge>path:hover{stroke-width:8}</style>
<ellipse fill="#ac4984" stroke="black" cx="84.33" cy="-284.88" rx="38.49" ry="18"/>
<text xml:space="preserve" text-anchor="middle" x="84.33" y="-281.38" font-family="Helvetica,sans-Serif" font-size="10.00" fill="#ffffff">query_data</text>
</g>
<!-- psycopg&#45;&gt;query_data -->
<g id="edge60" class="edge">
<title>psycopg&#45;&gt;query_data</title><style>.edge>path:hover{stroke-width:8}</style>
<path fill="none" stroke="black" d="M136.65,-345.05C127.74,-334.98 115.94,-321.63 105.8,-310.16"/>
<polygon fill="#b526d9" stroke="black" points="108.69,-308.15 99.44,-302.97 103.44,-312.78 108.69,-308.15"/>
</g>
<!-- psycopg_OperationalError -->
<g id="node29" class="node">
<title>psycopg_OperationalError</title><style>.edge>path:hover{stroke-width:8}</style>
<ellipse fill="#b13bce" stroke="black" cx="311.33" cy="-438.14" rx="61.16" ry="22.63"/>
<text xml:space="preserve" text-anchor="middle" x="311.33" y="-440.64" font-family="Helvetica,sans-Serif" font-size="10.00" fill="#ffffff">psycopg.</text>
<text xml:space="preserve" text-anchor="middle" x="311.33" y="-428.64" font-family="Helvetica,sans-Serif" font-size="10.00" fill="#ffffff">OperationalError</text>
</g>
<!-- psycopg_OperationalError&#45;&gt;blueprints_dashboard -->
<g id="edge61" class="edge">
<title>psycopg_OperationalError&#45;&gt;blueprints_dashboard</title><style>.edge>path:hover{stroke-width:8}</style>
<path fill="none" stroke="black" d="M252.01,-432.27C172.47,-424.17 38.82,-404.49 18.33,-362.51"/>
<path fill="none" stroke="black" d="M18.33,-360.51C-86.18,-146.45 294.38,-243 314.33,-209.25"/>
<path fill="none" stroke="black" d="M314.33,-207.25C370.37,-114.45 694.32,-181.24 799.33,-154.25 802.48,-153.45 805.69,-152.48 808.89,-151.41"/>
<polygon fill="#b13bce" stroke="black" points="810.03,-154.72 818.22,-148 807.63,-148.15 810.03,-154.72"/>
</g>
<!-- psycopg_OperationalError&#45;&gt;load_data -->
<g id="edge62" class="edge">
<title>psycopg_OperationalError&#45;&gt;load_data</title><style>.edge>path:hover{stroke-width:8}</style>
<path fill="none" stroke="black" d="M372.25,-435.53C463.53,-431.82 629.53,-419.6 671.33,-379.51 688.53,-363 692.41,-335.5 692.49,-314.57"/>
<polygon fill="#b13bce" stroke="black" points="695.99,-314.54 692.22,-304.64 689,-314.73 695.99,-314.54"/>
</g>
<!-- psycopg_OperationalError&#45;&gt;query_data -->
<g id="edge63" class="edge">
<title>psycopg_OperationalError&#45;&gt;query_data</title><style>.edge>path:hover{stroke-width:8}</style>
<path fill="none" stroke="black" d="M18.33,-360.51C7.73,-338.81 28.32,-318.58 49.24,-304.68"/>
<polygon fill="#b13bce" stroke="black" points="50.83,-307.8 57.47,-299.55 47.13,-301.86 50.83,-307.8"/>
</g>
<!-- query_data&#45;&gt;blueprints_dashboard -->
<g id="edge64" class="edge">
<title>query_data&#45;&gt;blueprints_dashboard</title><style>.edge>path:hover{stroke-width:8}</style>
<path fill="none" stroke="black" d="M111.64,-271.89C119.54,-268.6 128.22,-265.14 136.33,-262.25 214.09,-234.59 272.43,-280.38 314.33,-209.25"/>
</g>
</g>
</svg>
